<?xml version="1.0" encoding="utf-8"?>
<!-- Generator: Adobe Illustrator 28.3.0, SVG Export Plug-In . SVG Version: 6.00 Build 0)  -->
<svg version="1.1" id="Layer_1" xmlns="http://www.w3.org/2000/svg" xmlns:xlink="http://www.w3.org/1999/xlink" x="0px" y="0px"
	 viewBox="0 0 2700 2700" style="enable-background:new 0 0 2700 2700;" xml:space="preserve">
<style type="text/css">
	.st0{fill:#001E36;}
	.st1{fill:#31A8FF;}
</style>
<path class="st0" d="M478.1,33.8h1743.8c264.4,0,478.1,213.7,478.1,478.1v1676.2c0,264.4-213.8,478.1-478.1,478.1H478.1
	C213.8,2666.2,0,2452.5,0,2188.1V511.9C0,247.5,213.8,33.8,478.1,33.8z"/>
<g>
	<path class="st1" d="M662.5,1840.6V768.8c0-7.3,3.1-11.5,10.4-11.5c17.7,0,34.4,0,58.3-1c25-1,51-1,79.2-2.1
		c28.1-1,58.3-1,90.6-2.1s63.5-1,94.8-1c85.4,0,156.2,10.4,214.6,32.3c52.1,17.7,100,46.9,139.6,85.4c33.3,33.3,59.4,74,76,118.8
		c15.6,43.7,24,88.5,24,135.4c0,89.6-20.8,163.5-62.5,221.9c-41.7,58.3-100,102.1-167.7,127.1c-70.8,26-149,35.4-234.4,35.4
		c-25,0-41.7,0-52.1-1c-10.4-1-25-1-44.8-1v334.4c1,7.3-4.2,13.5-11.5,14.6H675C666.7,1854.2,662.5,1850,662.5,1840.6L662.5,1840.6z
		 M889.6,958.3v350c14.6,1,28.1,2.1,40.6,2.1h55.2c40.6,0,81.3-6.2,119.8-18.8c33.3-9.4,62.5-29.2,85.4-55.2
		c21.9-26,32.3-61.5,32.3-107.3c1-32.3-7.3-64.6-24-92.7c-17.7-27.1-42.7-47.9-72.9-59.4c-38.5-15.6-80.2-21.9-122.9-20.8
		c-27.1,0-51,0-70.8,1C911.5,956.2,896.9,957.3,889.6,958.3L889.6,958.3z M2100,1244.8c-31.2-16.7-64.6-28.1-100-35.4
		c-38.5-8.3-77.1-13.5-116.7-13.5c-20.8-1-42.7,2.1-62.5,7.3c-13.5,3.1-25,10.4-32.3,20.8c-5.2,8.3-8.3,18.8-8.3,28.1
		c0,9.4,4.2,18.8,10.4,27.1c9.4,11.5,21.9,20.8,35.4,28.1c24,12.5,49,24,74,34.4c56.2,18.8,110.4,44.8,160.4,76
		c34.4,21.9,62.5,51,82.3,86.5c16.7,33.3,25,69.8,24,107.3c1,49-13.5,97.9-40.6,138.5c-29.2,41.7-69.8,74-116.7,92.7
		c-51,21.9-113.5,33.3-188.5,33.3c-47.9,0-94.8-4.2-141.7-13.5c-36.5-6.3-72.9-17.7-106.2-33.3c-7.3-4.2-12.5-11.5-11.5-19.8v-181.2
		c0-3.1,1-7.3,4.2-9.4c3.1-2.1,6.2-1,9.4,1c40.6,24,83.3,40.6,129.2,51c39.6,10.4,81.2,15.6,122.9,15.6c39.6,0,67.7-5.2,86.5-14.6
		c16.7-7.3,28.1-25,28.1-43.8c0-14.6-8.3-28.1-25-41.7c-16.7-13.5-51-29.2-102.1-49c-53.1-18.8-102.1-43.8-147.9-75
		c-32.3-22.9-59.4-53.1-79.2-88.5c-16.7-33.3-25-69.8-24-106.2c0-44.8,12.5-87.5,35.4-126c26-41.7,64.6-75,109.4-95.8
		c49-25,110.4-36.5,184.4-36.5c42.7,0,86.5,3.1,129.2,9.4c31.3,4.2,61.5,12.5,89.6,24c4.2,1,8.3,5.2,10.4,9.4
		c1,4.2,2.1,8.3,2.1,12.5v169.8c0,4.2-2.1,8.3-5.2,10.4C2109.4,1246.9,2104.2,1246.9,2100,1244.8L2100,1244.8z"/>
</g>
</svg>
