<?xml version="1.0" encoding="utf-8"?>
<!-- Generator: Adobe Illustrator 28.3.0, SVG Export Plug-In . SVG Version: 6.00 Build 0)  -->
<svg version="1.1" id="Layer_1" xmlns="http://www.w3.org/2000/svg" xmlns:xlink="http://www.w3.org/1999/xlink" x="0px" y="0px"
	 viewBox="0 0 2700 2700" style="enable-background:new 0 0 2700 2700;" xml:space="preserve">
<style type="text/css">
	.st0{fill:#330000;}
	.st1{fill:#FF9A00;}
</style>
<path class="st0" d="M481.4,38.7h1737.1c263.4,0,476.3,212.9,476.3,476.3v1669.9c0,263.4-212.9,476.3-476.3,476.3H481.4
	c-263.4,0-476.3-212.9-476.3-476.3V515.1C5.1,251.7,218.1,38.7,481.4,38.7z"/>
<g>
	<path class="st1" d="M1311.5,1593.8H924l-79.2,244.8c-2.1,9.4-10.4,15.6-19.8,14.6H629.2c-11.5,0-14.6-6.2-11.5-18.8l335.4-965.6
		c3.1-10.4,6.2-21.9,10.4-34.4c4.2-21.9,6.2-44.8,6.2-67.7c-1-5.2,3.1-10.4,8.3-11.5h269.8c8.3,0,12.5,3.1,13.5,8.3l380.2,1072.9
		c3.1,11.5,0,16.7-10.4,16.7h-217.7c-7.3,1-14.6-4.2-16.7-11.5L1311.5,1593.8z M984.4,1382.3H1249c-6.2-21.9-14.6-47.9-24-75
		c-9.4-28.1-18.8-58.3-28.1-89.6c-10.4-32.3-19.8-63.5-30.2-95.8c-10.4-32.3-19.8-62.5-28.1-92.7c-8.3-29.2-15.6-56.2-22.9-81.2
		h-2.1c-9.4,44.8-20.8,89.6-35.4,134.4c-15.6,50-31.2,102.1-47.9,154.2C1015.6,1289.6,1000,1338.5,984.4,1382.3L984.4,1382.3z
		 M1868.8,933.3c-34.4,1-67.7-12.5-92.7-36.5c-24-26-36.5-60.4-35.4-95.8c-1-35.4,12.5-68.8,37.5-92.7s58.3-36.5,92.7-36.5
		c40.6,0,71.9,12.5,94.8,36.5c22.9,25,35.4,58.3,34.4,92.7c1,35.4-11.5,69.8-36.5,95.8C1939.6,921.9,1904.2,935.4,1868.8,933.3
		L1868.8,933.3z M1752.1,1837.5v-802.1c0-10.4,4.2-14.6,13.5-14.6h206.3c9.4,0,13.5,5.2,13.5,14.6v802.1c0,11.5-4.2,16.7-13.5,16.7
		h-204.2C1757.3,1854.2,1752.1,1847.9,1752.1,1837.5z"/>
</g>
</svg>
