<?xml version="1.0" encoding="utf-8"?>
<!-- Generator: Adobe Illustrator 28.3.0, SVG Export Plug-In . SVG Version: 6.00 Build 0)  -->
<svg version="1.1" id="Layer_1" xmlns="http://www.w3.org/2000/svg" xmlns:xlink="http://www.w3.org/1999/xlink" x="0px" y="0px"
	 viewBox="0 0 2700 2700" style="enable-background:new 0 0 2700 2700;" xml:space="preserve">
<style type="text/css">
	.st0{fill:#470137;}
	.st1{fill:#FF61F6;}
</style>
<path class="st0" d="M478.1,33.8h1743.8c264.4,0,478.1,213.7,478.1,478.1v1676.2c0,264.4-213.8,478.1-478.1,478.1H478.1
	C213.8,2666.2,0,2452.5,0,2188.1V511.9C0,247.5,213.8,33.8,478.1,33.8z"/>
<g>
	<path class="st1" d="M1406.1,837.2L1134.7,1285l289.5,474.9c1.8,3.6,2.7,7.2,1.8,10.9s-4.5,0.9-10,1.8h-207.2
		c-14.5,0-24.4-0.9-30.8-10c-19-38-38.9-75.1-57.9-113.1c-19-37.1-39.8-75.1-61.5-114c-21.7-38.9-43.4-77.8-65.1-117.6h-1.8
		c-19,38.9-39.8,77.8-60.6,116.7c-20.8,38.9-41.6,77.8-61.5,115.8c-20.8,38-41.6,76.9-62.4,114c-3.6,9-10.9,10-20.8,10h-199
		c-3.6,0-6.3,1.8-6.3-2.7c-0.9-3.6,0-7.2,1.8-10l281.3-461.4L590.1,836.3c-2.7-3.6-3.6-7.2-1.8-9c1.8-2.7,5.4-3.6,9-3.6h205.4
		c4.5,0,9,0.9,12.7,1.8c3.6,1.8,6.3,4.5,9,8.1c17.2,38.9,37.1,77.8,57.9,116.7c21.7,38.9,42.5,76.9,65.1,114.9
		c21.7,38,41.6,76,60.6,114.9h1.8c19-39.8,38.9-78.7,58.8-116.7c19.9-38,40.7-76,61.5-114c20.8-38,40.7-76.9,60.6-114
		c0.9-3.6,2.7-7.2,5.4-9c3.6-1.8,7.2-2.7,11.8-1.8h190.9c4.5-0.9,9,1.8,10,6.3C1409.7,831.7,1407.9,835.3,1406.1,837.2L1406.1,837.2
		z M1824.1,1791.6c-66.9,0.9-133.9-12.7-194.5-40.7c-57-26.2-104-69.7-136.6-123c-33.5-55.2-49.8-123.9-49.8-206.3
		c-0.9-66.9,16.3-133,49.8-190.9c34.4-58.8,84.1-107.7,143.8-140.2c63.3-35.3,139.3-52.5,228.9-52.5c4.5,0,10.9,0,19,0.9
		c8.1,0.9,17.2,0.9,28,1.8V754.8c0-6.3,2.7-10,9-10h183.6c4.5-0.9,8.1,2.7,9,6.3v863c0,16.3,0.9,34.4,1.8,54.3
		c1.8,19,2.7,37.1,3.6,52.5c0,6.3-2.7,11.8-9,14.5c-47,19.9-96.8,34.4-147.5,43.4C1917.3,1787,1871.1,1791.6,1824.1,1791.6
		L1824.1,1791.6z M1912.7,1610.6v-398c-8.1-1.8-16.3-3.6-24.4-4.5c-10-0.9-19.9-1.8-29.9-1.8c-35.3,0-70.6,7.2-102.2,23.5
		c-30.8,15.4-57,38-76.9,66.9c-19.9,28.9-29.9,67.8-29.9,114.9c-0.9,31.7,4.5,63.3,15.4,93.2c9,24.4,22.6,46.1,40.7,64.2
		c17.2,16.3,38,28.9,61.5,36.2c24.4,8.1,49.8,11.8,75.1,11.8c13.6,0,26.2-0.9,38-1.8C1891.9,1616.1,1901.9,1614.2,1912.7,1610.6
		L1912.7,1610.6z"/>
</g>
</svg>
