<?xml version="1.0" encoding="utf-8"?>
<!-- Generator: Adobe Illustrator 28.3.0, SVG Export Plug-In . SVG Version: 6.00 Build 0)  -->
<svg version="1.1" id="Layer_1" xmlns="http://www.w3.org/2000/svg" xmlns:xlink="http://www.w3.org/1999/xlink" x="0px" y="0px"
	 viewBox="0 0 2700 2700" style="enable-background:new 0 0 2700 2700;" xml:space="preserve">
<style type="text/css">
	.st0{fill:url(#SVGID_1_);}
</style>
<linearGradient id="SVGID_1_" gradientUnits="userSpaceOnUse" x1="1349.7998" y1="-4117.1299" x2="1349.7998" y2="-1415.9907" gradientTransform="matrix(1 0 0 1 0 4116.5601)">
	<stop  offset="0" style="stop-color:#DD3069"/>
	<stop  offset="1" style="stop-color:#942049"/>
</linearGradient>
<path class="st0" d="M1391.1,2700.6h-80c-3.7-1.4-7.4-1.7-11.2-1.7c-42.7-2.1-85.2-5.4-127.2-11.2c-78.7-10.2-156-27.5-231.3-51.6
	C812.1,2594.8,691.7,2535.4,580,2458c-103.5-71.9-195-156.7-274.8-254.4c-94-114.7-167.2-241.2-219.1-380.2
	c-46.5-123.5-74.3-251.3-82.8-383.3c-0.3-7.1-1.4-14.2-3.7-21.4v-139.4c2.4-6.1,3.4-12.6,3.7-19c1.7-31.6,5.1-63.1,9.2-94.3
	c20.4-150.6,65.1-293.4,134-428.8c47.5-93.3,105.2-180.1,173-260.2c67.2-79.4,142.5-150.3,225.9-212.3
	c136-101.1,285.6-174,449.1-218.8C1073.8,24.2,1155,10,1237,3.2c14.6-1.4,29.9-0.3,44.4-3.7h137c10.5,3.1,21.4,1.4,31.9,2.4
	c54.3,4.7,108.2,11.6,161.8,22.1c168.6,33.2,324.9,96.4,469.5,189.6c112.3,72.2,211.3,159.4,297.8,260.8
	c69.5,81.4,128.5,170,176.7,265.6c57,113,97.7,231.3,120.8,355.8c12.2,65.8,21.4,132.3,21.7,199.5c0,4.4,1,9.2,1.4,13.6v80
	c-1.4,5.1-1.4,10.5-1.7,15.9c0,12.9,0,25.8-1,38.7c-6.1,82.1-19,163.2-39.4,243.2c-39,150.3-101.8,289.7-189,418.2
	c-64.8,95.7-140.4,181.8-227.3,258.1c-86.5,76-181.2,140.1-283.9,192c-118.4,59.7-242.9,101.1-373.5,123.8
	c-50.2,8.8-100.7,14.6-151.6,17.6C1419.3,2697.9,1405,2697.6,1391.1,2700.6L1391.1,2700.6z M845.3,2056.1
	c22.4,0.7,47.5-2.1,72.6-7.4c74.3-16.3,137.4-50.2,185.9-110.2c29.5-36.6,54.3-76.3,75.7-118c25.1-49.2,46.1-100.4,64.4-152.3
	c22.4-62.7,41.4-126.9,56-191.7c8.1-36.3-1-59-41.1-71.6c-50.9-15.9-102.1-30.2-154.3-41.7c-86.5-19-173.7-31.2-262.6-28.2
	c-25.1,1-50.2,3.7-75,8.1c-71.9,12.6-133,45.8-182.8,98.4c-85.2,89.5-119,196.4-98,318.2C516.3,1933.6,670.3,2057.4,845.3,2056.1
	L845.3,2056.1z M988.8,808.5c-1,25.4,3.7,53.2,11.6,81.1c14.9,52.9,39.7,101.4,68.9,147.2c66.5,104.2,150.3,193.3,241.2,276.1
	c7.4,6.8,16.3,12.6,25.8,16.9c9.5,4.7,19,4.7,28.8,0.7c9.5-4.1,18-9.8,25.1-17.3c31.6-31.2,62.7-62.4,92.6-94.7
	c42.1-45.8,82.1-92.9,118.4-143.5c32.9-45.8,62.4-94,84.1-146.2c21.7-51.9,32.2-105.5,25.1-161.8c-11.9-92.9-51.6-171.7-122.5-233.4
	c-83.8-72.9-181.5-102.1-291.4-85.8C1117.7,474.3,988.1,631.7,988.8,808.5L988.8,808.5z M1870.1,2054.1c8.8-0.3,24.7,0,40.7-2.4
	c107.2-15.9,192-67.9,251.7-158.7c46.8-71.6,65.8-151,57-236.1c-8.1-79.7-40.4-149.6-95-208.3c-47.5-50.9-104.2-86.2-172.7-101.1
	c-37.7-8.1-76-11.6-114.3-12.2c-45.4-0.7-90.5,3.4-135.3,9.5c-89.5,12.6-177.1,33.9-263.2,61.1c-8.8,2.7-16.9,6.8-24.1,12.6
	c-9.2,7.4-14.2,16.6-14.2,28.5c0,10.2,1,20.4,3.4,30.6c5.4,20.4,10.2,40.7,15.6,60.7c25.1,91.6,55.6,181.2,97.4,266.6
	c24.1,49.2,51.9,95.7,87.5,137.4c27.1,31.6,58.7,57.3,96.4,75.3C1752.4,2042.2,1806,2055.4,1870.1,2054.1L1870.1,2054.1z"/>
</svg>
