<?xml version="1.0" encoding="utf-8"?>
<!-- Generator: Adobe Illustrator 28.3.0, SVG Export Plug-In . SVG Version: 6.00 Build 0)  -->
<svg version="1.1" id="Layer_1" xmlns="http://www.w3.org/2000/svg" xmlns:xlink="http://www.w3.org/1999/xlink" x="0px" y="0px"
	 viewBox="0 0 1667 2500" style="enable-background:new 0 0 1667 2500;" xml:space="preserve">
<style type="text/css">
	.st0{fill:none;}
	.st1{fill:#1ABCFE;}
	.st2{fill:#0ACF83;}
	.st3{fill:#FF7262;}
	.st4{fill:#F24E1E;}
	.st5{fill:#A259FF;}
</style>
<g>
	<path class="st0" d="M367.7,551.3h931.6v1397.4H367.7V551.3z"/>
	<path class="st1" d="M833.5,1250c0-128.6,104.3-232.9,232.9-232.9s232.9,104.3,232.9,232.9s-104.3,232.9-232.9,232.9
		S833.5,1378.6,833.5,1250z"/>
	<path class="st2" d="M367.7,1715.8c0-128.6,104.3-232.9,232.9-232.9h232.9v232.9c0,128.6-104.3,232.9-232.9,232.9
		S367.7,1844.4,367.7,1715.8z"/>
	<path class="st3" d="M833.5,551.3v465.8h232.9c128.6,0,232.9-104.3,232.9-232.9S1195,551.3,1066.4,551.3H833.5L833.5,551.3z"/>
	<path class="st4" d="M367.7,784.2c0,128.6,104.3,232.9,232.9,232.9h232.9V551.3H600.6C472,551.3,367.7,655.6,367.7,784.2
		L367.7,784.2z"/>
	<path class="st5" d="M367.7,1250c0,128.6,104.3,232.9,232.9,232.9h232.9v-465.8H600.6C472,1017.1,367.7,1121.4,367.7,1250
		L367.7,1250z"/>
</g>
</svg>
