<?xml version="1.0" encoding="utf-8"?>
<!-- Generator: Adobe Illustrator 28.3.0, SVG Export Plug-In . SVG Version: 6.00 Build 0)  -->
<svg version="1.1" id="Layer_1" xmlns="http://www.w3.org/2000/svg" xmlns:xlink="http://www.w3.org/1999/xlink" x="0px" y="0px"
	 viewBox="0 0 2700 2700" style="enable-background:new 0 0 2700 2700;" xml:space="preserve">
<style type="text/css">
	.st0{fill:#F0DB4F;}
	.st1{fill:#323330;}
</style>
<path class="st0" d="M107.8,107.8h2484.4v2484.4H107.8V107.8z"/>
<path class="st1" d="M2332.9,1964.7c-17.2-107.2-87.1-197.3-294.3-281.3c-71.9-33.1-152.2-56.7-176.1-111.3
	c-8.5-31.7-9.6-49.6-4.2-68.8c15.4-62.3,89.8-81.8,148.8-63.9c38,12.7,74,42,95.6,88.7c101.4-65.7,101.2-65.2,172-110.4
	c-25.9-40.2-39.8-58.8-56.8-76c-61-68.1-144.1-103.2-277.1-100.5c-23,2.9-46.2,6-69.3,8.9c-66.4,16.8-129.6,51.6-166.7,98.3
	c-111.3,126.2-79.5,347.2,55.9,438.1c133.4,100.1,329.3,122.9,354.4,216.5c24.4,114.6-84.2,151.7-192.2,138.5
	c-79.5-16.5-123.8-57-171.6-130.5c-88,50.9-88,50.9-178.5,103c21.4,46.9,44,68.1,80,108.8c170.3,172.7,596.3,164.2,672.8-97.2
	C2328.9,2116.8,2349.4,2056.9,2332.9,1964.7z M1452.6,1255h-219.9c0,189.9-0.9,378.5-0.9,568.4c0,120.9,6.3,231.7-13.4,265.7
	c-32.2,66.8-115.5,58.5-153.5,45.6c-38.7-19-58.3-46-81.1-84.2c-6.3-10.9-10.9-19.4-12.5-20.1c-59.7,36.4-119.1,73.1-178.7,109.5
	c29.7,61,73.5,113.9,129.6,148.4c83.8,50.3,196.4,65.7,314.1,38.7c76.6-22.3,142.8-68.6,177.4-139c50-92.3,39.3-204,38.9-327.6
	C1453.7,1658.8,1452.6,1457.2,1452.6,1255L1452.6,1255z"/>
</svg>
